<svg xmlns="http://www.w3.org/2000/svg" viewBox="0 0 64 64" fill="none">
  <defs>
    <linearGradient id="bg" x1="10" y1="8" x2="56" y2="58" gradientUnits="userSpaceOnUse">
      <stop stop-color="#16314A" />
      <stop offset="0.55" stop-color="#0C1828" />
      <stop offset="1" stop-color="#050A12" />
    </linearGradient>
    <radialGradient id="glow" cx="0" cy="0" r="1" gradientUnits="userSpaceOnUse" gradientTransform="translate(22 18) rotate(46.5) scale(34 41.8)">
      <stop stop-color="#58C9DA" stop-opacity="0.42" />
      <stop offset="1" stop-color="#58C9DA" stop-opacity="0" />
    </radialGradient>
    <linearGradient id="planet" x1="23" y1="18" x2="44" y2="45" gradientUnits="userSpaceOnUse">
      <stop stop-color="#86F2EA" />
      <stop offset="0.58" stop-color="#44A5B8" />
      <stop offset="1" stop-color="#1F5177" />
    </linearGradient>
    <linearGradient id="ringBack" x1="13" y1="23" x2="56" y2="41" gradientUnits="userSpaceOnUse">
      <stop stop-color="#6EE7E0" stop-opacity="0.5" />
      <stop offset="1" stop-color="#F1A04F" stop-opacity="0.7" />
    </linearGradient>
    <linearGradient id="ringFront" x1="18" y1="19" x2="52" y2="45" gradientUnits="userSpaceOnUse">
      <stop stop-color="#F7C76B" />
      <stop offset="1" stop-color="#F07A3B" />
    </linearGradient>
    <filter id="shadow" x="4" y="4" width="56" height="56" color-interpolation-filters="sRGB" filterUnits="userSpaceOnUse">
      <feFlood flood-opacity="0" result="BackgroundImageFix" />
      <feColorMatrix in="SourceAlpha" result="hardAlpha" values="0 0 0 0 0 0 0 0 0 0 0 0 0 0 0 0 0 0 127 0" />
      <feOffset dy="4" />
      <feGaussianBlur stdDeviation="5" />
      <feComposite in2="hardAlpha" operator="out" />
      <feColorMatrix values="0 0 0 0 0.0118 0 0 0 0 0.0588 0 0 0 0 0.1098 0 0 0 0.42 0" />
      <feBlend in2="BackgroundImageFix" result="effect1_dropShadow_1_1" />
      <feBlend in="SourceGraphic" in2="effect1_dropShadow_1_1" result="shape" />
    </filter>
  </defs>

  <g filter="url(#shadow)">
    <rect x="8" y="8" width="48" height="48" rx="16" fill="url(#bg)" />
    <rect x="8.75" y="8.75" width="46.5" height="46.5" rx="15.25" stroke="#94C6E4" stroke-opacity="0.18" />
    <rect x="8" y="8" width="48" height="48" rx="16" fill="url(#glow)" />

    <circle cx="18" cy="17" r="1.6" fill="#C5FBF7" />
    <circle cx="49" cy="18" r="1.2" fill="#F6C77D" />
    <circle cx="45.5" cy="46.5" r="1.4" fill="#8DE5E0" />

    <ellipse cx="31.5" cy="31.5" rx="21.5" ry="9.5" transform="rotate(-20 31.5 31.5)" stroke="url(#ringBack)" stroke-width="3.5" />

    <circle cx="31.5" cy="32" r="13.5" fill="url(#planet)" />
    <circle cx="27.5" cy="27.5" r="5.5" fill="#C8FFFA" fill-opacity="0.28" />

    <path d="M24 26.5L31 23.5" stroke="#E7FFFD" stroke-linecap="round" stroke-width="2.3" />
    <path d="M22.5 31.5L34 26.5" stroke="#D0FFF9" stroke-linecap="round" stroke-width="2.8" />
    <path d="M23.5 37L38 30.8" stroke="#F7B86C" stroke-linecap="round" stroke-width="3.2" />

    <path d="M15.5 38.2C20.2 43.6 27 46.4 35 46.1C41.2 45.9 46.8 43.7 50.8 39.8" stroke="url(#ringFront)" stroke-linecap="round" stroke-width="4.2" />
    <circle cx="49.8" cy="40.5" r="3" fill="#F3A253" />
    <circle cx="49.8" cy="40.5" r="1.2" fill="#FFF4D8" />
  </g>
</svg>
